<?xml version="1.0" encoding="UTF-8"?>
<!DOCTYPE svg PUBLIC "-//W3C//DTD SVG 1.1//EN" "http://www.w3.org/Graphics/SVG/1.1/DTD/svg11.dtd">
<!-- Creator: CorelDRAW 2020 (64 Bit) -->
<svg xmlns="http://www.w3.org/2000/svg" xml:space="preserve" width="6.35mm" height="6.4164mm" version="1.1" style="shape-rendering:geometricPrecision; text-rendering:geometricPrecision; image-rendering:optimizeQuality; fill-rule:evenodd; clip-rule:evenodd"
viewBox="0 0 241.98 244.51"
 xmlns:xlink="http://www.w3.org/1999/xlink"
 xmlns:xodm="http://www.corel.com/coreldraw/odm/2003">
 <defs>
  <style type="text/css">
   <![CDATA[
    .fil0 {fill:#48AA25}
   ]]>
  </style>
 </defs>
 <g id="Camada_x0020_1">
  <metadata id="CorelCorpID_0Corel-Layer"/>
  <g id="_2173970831152">
   <path class="fil0" d="M17.81 125.58c-4.08,-135.49 201.88,-142.1 206.15,-6.5 4.28,135.68 -202.09,141.28 -206.15,6.5zm107.38 118.93l-11.75 0c-145.59,-5.88 -156.12,-232.57 -2.02,-244.07 162.58,-12.13 178.22,232.02 19.17,243.8 -1.83,0.13 -3.61,0.21 -5.4,0.27l0 0z"/>
   <path class="fil0" d="M165.27 81.06c-4.05,1.17 -50.57,48.48 -56.33,55.06 -7.61,8.69 -21.83,-13.42 -28.12,-19.05 -7.31,-6.54 -29.24,-1.91 -5.33,22 34.16,34.16 25.46,32.09 59.7,-2.15 9.31,-9.31 18.62,-18.63 27.94,-27.94 2.69,-2.69 12.33,-11.66 13.62,-14.21 3.98,-7.9 -2.84,-16.2 -11.48,-13.71l0 0z"/>
  </g>
 </g>
</svg>
