<svg width="170" height="22" viewBox="0 0 170 22" fill="none" xmlns="http://www.w3.org/2000/svg">
<path d="M13.9838 4.87597C15.3298 4.87597 16.4118 5.29163 17.23 6.12297C18.0613 6.94111 18.477 8.08914 18.477 9.56706V16H15.7058V9.94314C15.7058 9.08542 15.4881 8.43223 15.0527 7.98357C14.6172 7.52172 14.0234 7.29079 13.2712 7.29079C12.5191 7.29079 11.9187 7.52172 11.47 7.98357C11.0345 8.43223 10.8168 9.08542 10.8168 9.94314V16H8.0457V9.94314C8.0457 9.08542 7.82797 8.43223 7.39251 7.98357C6.95705 7.52172 6.36324 7.29079 5.61108 7.29079C4.84573 7.29079 4.23872 7.52172 3.79006 7.98357C3.3546 8.43223 3.13687 9.08542 3.13687 9.94314V16H0.365762V5.03432H3.13687V6.36049C3.49316 5.89864 3.94841 5.53576 4.50264 5.27184C5.07005 5.00792 5.69025 4.87597 6.36324 4.87597C7.22096 4.87597 7.98632 5.06071 8.6593 5.43019C9.33229 5.78648 9.85352 6.30111 10.223 6.97409C10.5793 6.3407 11.0939 5.83266 11.7669 5.44998C12.4531 5.06731 13.192 4.87597 13.9838 4.87597ZM22.5119 3.72794C22.0237 3.72794 21.6146 3.57618 21.2847 3.27268C20.968 2.95598 20.8097 2.56671 20.8097 2.10486C20.8097 1.643 20.968 1.26033 21.2847 0.956824C21.6146 0.640126 22.0237 0.481776 22.5119 0.481776C23.0002 0.481776 23.4026 0.640126 23.7193 0.956824C24.0492 1.26033 24.2142 1.643 24.2142 2.10486C24.2142 2.56671 24.0492 2.95598 23.7193 3.27268C23.4026 3.57618 23.0002 3.72794 22.5119 3.72794ZM23.8777 5.03432V16H21.1066V5.03432H23.8777ZM32.6922 4.87597C33.9986 4.87597 35.0542 5.29163 35.8592 6.12297C36.6641 6.94111 37.0666 8.08914 37.0666 9.56706V16H34.2955V9.94314C34.2955 9.07222 34.0778 8.40584 33.6423 7.94398C33.2068 7.46894 32.613 7.23141 31.8609 7.23141C31.0955 7.23141 30.4885 7.46894 30.0398 7.94398C29.6044 8.40584 29.3867 9.07222 29.3867 9.94314V16H26.6155V5.03432H29.3867V6.40008C29.7561 5.92503 30.2246 5.55555 30.792 5.29163C31.3726 5.01452 32.006 4.87597 32.6922 4.87597ZM45.8774 4.87597C46.7087 4.87597 47.4477 5.06071 48.0943 5.43019C48.7409 5.78648 49.2423 6.3209 49.5986 7.03348C49.9681 7.73285 50.1528 8.57738 50.1528 9.56706V16H47.3817V9.94314C47.3817 9.07222 47.164 8.40584 46.7285 7.94398C46.2931 7.46894 45.6993 7.23141 44.9471 7.23141C44.1817 7.23141 43.5747 7.46894 43.1261 7.94398C42.6906 8.40584 42.4729 9.07222 42.4729 9.94314V16H39.7018V1.3527H42.4729V6.40008C42.8292 5.92503 43.3042 5.55555 43.898 5.29163C44.4918 5.01452 45.1516 4.87597 45.8774 4.87597ZM52.0754 10.4776C52.0754 9.36913 52.2932 8.38604 52.7286 7.52832C53.1773 6.67059 53.7777 6.0108 54.5299 5.54895C55.2952 5.0871 56.1463 4.85617 57.0832 4.85617C57.9014 4.85617 58.6139 5.02112 59.2209 5.35101C59.8411 5.68091 60.336 6.09658 60.7055 6.59802V5.03432H63.4964V16H60.7055V14.3967C60.3492 14.9113 59.8543 15.3402 59.2209 15.6833C58.6007 16.0132 57.8816 16.1781 57.0634 16.1781C56.1397 16.1781 55.2952 15.9406 54.5299 15.4656C53.7777 14.9905 53.1773 14.3241 52.7286 13.4664C52.2932 12.5955 52.0754 11.5992 52.0754 10.4776ZM60.7055 10.5172C60.7055 9.84417 60.5735 9.27016 60.3096 8.79511C60.0457 8.30687 59.6894 7.93739 59.2407 7.68667C58.7921 7.42275 58.3104 7.29079 57.7958 7.29079C57.2812 7.29079 56.8061 7.41615 56.3707 7.66687C55.9352 7.91759 55.5789 8.28707 55.3018 8.77532C55.0379 9.25036 54.9059 9.81778 54.9059 10.4776C54.9059 11.1374 55.0379 11.718 55.3018 12.2194C55.5789 12.7077 55.9352 13.0837 56.3707 13.3477C56.8193 13.6116 57.2944 13.7435 57.7958 13.7435C58.3104 13.7435 58.7921 13.6182 59.2407 13.3674C59.6894 13.1035 60.0457 12.734 60.3096 12.259C60.5735 11.7708 60.7055 11.1901 60.7055 10.5172ZM70.3991 16.1781C69.5018 16.1781 68.6969 16.0198 67.9843 15.7031C67.2717 15.3732 66.7043 14.9311 66.282 14.3769C65.873 13.8227 65.6486 13.2091 65.609 12.5361H68.3999C68.4527 12.9584 68.6573 13.3081 69.0136 13.5852C69.383 13.8623 69.8383 14.0008 70.3793 14.0008C70.9071 14.0008 71.3162 13.8953 71.6065 13.6841C71.91 13.473 72.0618 13.2025 72.0618 12.8726C72.0618 12.5163 71.877 12.2524 71.5076 12.0809C71.1513 11.8961 70.5772 11.6982 69.7855 11.487C68.9674 11.2891 68.2944 11.0846 67.7666 10.8734C67.2519 10.6623 66.8033 10.339 66.4206 9.90355C66.0511 9.46809 65.8664 8.88088 65.8664 8.14192C65.8664 7.53491 66.0379 6.98069 66.381 6.47925C66.7373 5.97781 67.2387 5.58194 67.8853 5.29163C68.5451 5.00133 69.3171 4.85617 70.2012 4.85617C71.5076 4.85617 72.55 5.18607 73.3286 5.84586C74.1071 6.49245 74.536 7.36997 74.6152 8.47841H71.9628C71.9232 8.04295 71.7385 7.69986 71.4086 7.44914C71.0919 7.18523 70.663 7.05327 70.122 7.05327C69.6206 7.05327 69.2313 7.14564 68.9542 7.33038C68.6903 7.51512 68.5583 7.77244 68.5583 8.10233C68.5583 8.47181 68.743 8.75552 69.1125 8.95346C69.482 9.1382 70.056 9.32954 70.8346 9.52748C71.6263 9.72541 72.2795 9.92995 72.7941 10.1411C73.3088 10.3522 73.7508 10.6821 74.1203 11.1308C74.503 11.5662 74.7009 12.1468 74.7141 12.8726C74.7141 13.506 74.536 14.0734 74.1797 14.5749C73.8366 15.0763 73.3352 15.4722 72.6754 15.7625C72.0288 16.0396 71.27 16.1781 70.3991 16.1781ZM87.1581 7.31059H85.2382V16H82.4275V7.31059H81.1805V5.03432H82.4275V4.48009C82.4275 3.13413 82.8101 2.14444 83.5755 1.51105C84.3408 0.877649 85.4955 0.580745 87.0394 0.620333V2.95598C86.3664 2.94279 85.8979 3.05495 85.634 3.29248C85.3701 3.53 85.2382 3.95886 85.2382 4.57906V5.03432H87.1581V7.31059ZM90.3593 3.72794C89.8711 3.72794 89.462 3.57618 89.1321 3.27268C88.8154 2.95598 88.657 2.56671 88.657 2.10486C88.657 1.643 88.8154 1.26033 89.1321 0.956824C89.462 0.640126 89.8711 0.481776 90.3593 0.481776C90.8475 0.481776 91.25 0.640126 91.5667 0.956824C91.8966 1.26033 92.0616 1.643 92.0616 2.10486C92.0616 2.56671 91.8966 2.95598 91.5667 3.27268C91.25 3.57618 90.8475 3.72794 90.3593 3.72794ZM91.7251 5.03432V16H88.954V5.03432H91.7251ZM100.54 4.87597C101.846 4.87597 102.902 5.29163 103.707 6.12297C104.511 6.94111 104.914 8.08914 104.914 9.56706V16H102.143V9.94314C102.143 9.07222 101.925 8.40584 101.49 7.94398C101.054 7.46894 100.46 7.23141 99.7082 7.23141C98.9429 7.23141 98.3359 7.46894 97.8872 7.94398C97.4518 8.40584 97.234 9.07222 97.234 9.94314V16H94.4629V5.03432H97.234V6.40008C97.6035 5.92503 98.072 5.55555 98.6394 5.29163C99.22 5.01452 99.8534 4.87597 100.54 4.87597ZM106.837 10.4776C106.837 9.36913 107.054 8.38604 107.49 7.52832C107.938 6.67059 108.539 6.0108 109.291 5.54895C110.056 5.0871 110.907 4.85617 111.844 4.85617C112.663 4.85617 113.375 5.02112 113.982 5.35101C114.602 5.68091 115.097 6.09658 115.467 6.59802V5.03432H118.258V16H115.467V14.3967C115.11 14.9113 114.615 15.3402 113.982 15.6833C113.362 16.0132 112.643 16.1781 111.825 16.1781C110.901 16.1781 110.056 15.9406 109.291 15.4656C108.539 14.9905 107.938 14.3241 107.49 13.4664C107.054 12.5955 106.837 11.5992 106.837 10.4776ZM115.467 10.5172C115.467 9.84417 115.335 9.27016 115.071 8.79511C114.807 8.30687 114.451 7.93739 114.002 7.68667C113.553 7.42275 113.072 7.29079 112.557 7.29079C112.042 7.29079 111.567 7.41615 111.132 7.66687C110.696 7.91759 110.34 8.28707 110.063 8.77532C109.799 9.25036 109.667 9.81778 109.667 10.4776C109.667 11.1374 109.799 11.718 110.063 12.2194C110.34 12.7077 110.696 13.0837 111.132 13.3477C111.58 13.6116 112.056 13.7435 112.557 13.7435C113.072 13.7435 113.553 13.6182 114.002 13.3674C114.451 13.1035 114.807 12.734 115.071 12.259C115.335 11.7708 115.467 11.1901 115.467 10.5172ZM127.041 4.87597C128.347 4.87597 129.403 5.29163 130.208 6.12297C131.013 6.94111 131.415 8.08914 131.415 9.56706V16H128.644V9.94314C128.644 9.07222 128.426 8.40584 127.991 7.94398C127.555 7.46894 126.961 7.23141 126.209 7.23141C125.444 7.23141 124.837 7.46894 124.388 7.94398C123.953 8.40584 123.735 9.07222 123.735 9.94314V16H120.964V5.03432H123.735V6.40008C124.105 5.92503 124.573 5.55555 125.14 5.29163C125.721 5.01452 126.354 4.87597 127.041 4.87597ZM138.741 13.8029C139.863 13.8029 140.595 13.3015 140.938 12.2986H143.927C143.65 13.3674 143.136 14.2384 142.383 14.9113C141.644 15.5843 140.714 15.9868 139.592 16.1188V16.8907C140.318 16.8907 140.925 17.0755 141.413 17.4449C141.915 17.8144 142.166 18.3488 142.166 19.0482C142.166 19.7608 141.908 20.3084 141.394 20.6911C140.892 21.0738 140.272 21.2651 139.533 21.2651H136.722V19.642H139.078C139.395 19.642 139.632 19.5958 139.79 19.5035C139.962 19.4111 140.048 19.2462 140.048 19.0086C140.048 18.7711 139.962 18.6062 139.79 18.5138C139.632 18.4346 139.395 18.395 139.078 18.395H137.851V16.1188C136.953 15.9868 136.162 15.6767 135.475 15.1885C134.802 14.687 134.275 14.0404 133.892 13.2487C133.522 12.4437 133.338 11.5332 133.338 10.5172C133.338 9.38232 133.569 8.39264 134.03 7.54811C134.492 6.69039 135.132 6.0306 135.95 5.56875C136.769 5.0937 137.705 4.85617 138.761 4.85617C140.12 4.85617 141.242 5.19926 142.126 5.88544C143.023 6.55843 143.624 7.50852 143.927 8.73573H140.938C140.78 8.26068 140.51 7.8912 140.127 7.62729C139.757 7.35017 139.296 7.21162 138.741 7.21162C137.95 7.21162 137.323 7.50193 136.861 8.08254C136.399 8.64996 136.168 9.4615 136.168 10.5172C136.168 11.5596 136.399 12.3712 136.861 12.9518C137.323 13.5192 137.95 13.8029 138.741 13.8029ZM145.245 10.4776C145.245 9.36913 145.463 8.38604 145.898 7.52832C146.347 6.67059 146.947 6.0108 147.699 5.54895C148.465 5.0871 149.316 4.85617 150.253 4.85617C151.071 4.85617 151.783 5.02112 152.39 5.35101C153.01 5.68091 153.505 6.09658 153.875 6.59802V5.03432H156.666V16H153.875V14.3967C153.519 14.9113 153.024 15.3402 152.39 15.6833C151.77 16.0132 151.051 16.1781 150.233 16.1781C149.309 16.1781 148.465 15.9406 147.699 15.4656C146.947 14.9905 146.347 14.3241 145.898 13.4664C145.463 12.5955 145.245 11.5992 145.245 10.4776ZM153.875 10.5172C153.875 9.84417 153.743 9.27016 153.479 8.79511C153.215 8.30687 152.859 7.93739 152.41 7.68667C151.961 7.42275 151.48 7.29079 150.965 7.29079C150.451 7.29079 149.975 7.41615 149.54 7.66687C149.105 7.91759 148.748 8.28707 148.471 8.77532C148.207 9.25036 148.075 9.81778 148.075 10.4776C148.075 11.1374 148.207 11.718 148.471 12.2194C148.748 12.7077 149.105 13.0837 149.54 13.3477C149.989 13.6116 150.464 13.7435 150.965 13.7435C151.48 13.7435 151.961 13.6182 152.41 13.3674C152.859 13.1035 153.215 12.734 153.479 12.259C153.743 11.7708 153.875 11.1901 153.875 10.5172Z" fill="white"/>
<path d="M78.216 16.1386C77.7146 16.1386 77.2989 15.9868 76.969 15.6833C76.6523 15.3666 76.494 14.9773 76.494 14.5155C76.494 14.0536 76.6523 13.6709 76.969 13.3674C77.2989 13.0507 77.7146 12.8924 78.216 12.8924C78.7043 12.8924 79.1068 13.0507 79.4235 13.3674C79.7402 13.6709 79.8985 14.0536 79.8985 14.5155C79.8985 14.9773 79.7402 15.3666 79.4235 15.6833C79.1068 15.9868 78.7043 16.1386 78.216 16.1386ZM169.229 12.0215C169.229 12.7077 169.051 13.3542 168.695 13.9613C168.352 14.5551 167.837 15.0499 167.151 15.4458C166.478 15.8285 165.68 16.0528 164.756 16.1188V17.722H163.489V16.099C162.17 15.9802 161.107 15.5843 160.302 14.9113C159.498 14.2252 159.082 13.3015 159.055 12.1402H162.025C162.104 13.0903 162.592 13.6643 163.489 13.8623V10.0817C162.539 9.84417 161.774 9.60665 161.193 9.36913C160.613 9.1316 160.111 8.74893 159.689 8.22109C159.267 7.69326 159.055 6.97409 159.055 6.06359C159.055 4.91555 159.465 3.97865 160.283 3.25289C161.114 2.52712 162.183 2.11145 163.489 2.00589V0.402602H164.756V2.00589C166.023 2.11145 167.032 2.49413 167.784 3.15392C168.55 3.81371 168.979 4.72422 169.071 5.88544H166.082C166.043 5.50277 165.904 5.17287 165.667 4.89576C165.442 4.60545 165.139 4.40092 164.756 4.28216V8.02316C165.746 8.27388 166.524 8.518 167.092 8.75552C167.672 8.97985 168.174 9.35593 168.596 9.88376C169.018 10.3984 169.229 11.111 169.229 12.0215ZM161.945 5.92503C161.945 6.36049 162.077 6.71678 162.341 6.99389C162.605 7.2578 162.988 7.47553 163.489 7.64708V4.22278C163.014 4.28876 162.638 4.4669 162.361 4.75721C162.084 5.04751 161.945 5.43679 161.945 5.92503ZM164.756 13.9019C165.257 13.8095 165.647 13.605 165.924 13.2883C166.214 12.9716 166.359 12.5889 166.359 12.1402C166.359 11.7048 166.221 11.3551 165.944 11.0912C165.667 10.8273 165.271 10.6095 164.756 10.438V13.9019Z" fill="#49AA26"/>
</svg>
