<?xml version="1.0" encoding="UTF-8"?>
<!DOCTYPE svg PUBLIC "-//W3C//DTD SVG 1.1//EN" "http://www.w3.org/Graphics/SVG/1.1/DTD/svg11.dtd">
<!-- Creator: CorelDRAW 2020 (64 Bit) -->
<svg xmlns="http://www.w3.org/2000/svg" xml:space="preserve" width="45.5251mm" height="5.4827mm" version="1.1" style="shape-rendering:geometricPrecision; text-rendering:geometricPrecision; image-rendering:optimizeQuality; fill-rule:evenodd; clip-rule:evenodd"
viewBox="0 0 3112.59 374.86"
 xmlns:xlink="http://www.w3.org/1999/xlink"
 xmlns:xodm="http://www.corel.com/coreldraw/odm/2003">
 <defs>
  <style type="text/css">
   <![CDATA[
    .fil1 {fill:#49AA26;fill-rule:nonzero}
    .fil0 {fill:white;fill-rule:nonzero}
    .fil2 {fill:white;fill-rule:nonzero}
   ]]>
  </style>
 </defs>
 <g id="Camada_x0020_1">
  <metadata id="CorelCorpID_0Corel-Layer"/>
  <path class="fil0" d="M246.35 80.92c24.35,0 43.92,7.52 58.72,22.56 15.03,14.8 22.56,35.57 22.56,62.31l0 116.37 -50.13 0 0 -109.56c0,-15.52 -3.94,-27.33 -11.81,-35.45 -7.88,-8.35 -18.62,-12.53 -32.22,-12.53 -13.61,0 -24.47,4.18 -32.59,12.53 -7.88,8.12 -11.81,19.93 -11.81,35.45l0 109.56 -50.13 0 0 -109.56c0,-15.52 -3.94,-27.33 -11.81,-35.45 -7.88,-8.35 -18.62,-12.53 -32.23,-12.53 -13.85,0 -24.83,4.18 -32.94,12.53 -7.88,8.12 -11.81,19.93 -11.81,35.45l0 109.56 -50.13 0 0 -198.36 50.13 0 0 23.99c6.44,-8.35 14.68,-14.92 24.7,-19.7 10.27,-4.77 21.49,-7.16 33.66,-7.16 15.52,0 29.37,3.34 41.54,10.02 12.18,6.45 21.61,15.76 28.29,27.93 6.44,-11.46 15.75,-20.65 27.92,-27.57 12.42,-6.93 25.78,-10.39 40.11,-10.39zm154.27 -20.77c-8.83,0 -16.23,-2.74 -22.2,-8.23 -5.73,-5.73 -8.59,-12.77 -8.59,-21.13 0,-8.35 2.86,-15.28 8.59,-20.77 5.97,-5.72 13.37,-8.59 22.2,-8.59 8.83,0 16.11,2.86 21.84,8.59 5.97,5.49 8.96,12.42 8.96,20.77 0,8.35 -2.99,15.4 -8.96,21.13 -5.72,5.49 -13,8.23 -21.84,8.23zm24.71 23.64l0 198.36 -50.13 0 0 -198.36 50.13 0zm159.45 -2.86c23.64,0 42.73,7.52 57.29,22.56 14.56,14.8 21.84,35.57 21.84,62.31l0 116.37 -50.13 0 0 -109.56c0,-15.76 -3.94,-27.81 -11.81,-36.17 -7.88,-8.59 -18.62,-12.89 -32.22,-12.89 -13.85,0 -24.83,4.29 -32.95,12.89 -7.88,8.35 -11.81,20.41 -11.81,36.17l0 109.56 -50.13 0 0 -198.36 50.13 0 0 24.7c6.69,-8.59 15.16,-15.27 25.43,-20.05 10.5,-5.02 21.96,-7.52 34.37,-7.52zm238.52 0c15.04,0 28.41,3.34 40.11,10.02 11.69,6.45 20.76,16.11 27.21,29 6.68,12.66 10.02,27.93 10.02,45.84l0 116.37 -50.13 0 0 -109.56c0,-15.76 -3.94,-27.81 -11.81,-36.17 -7.88,-8.59 -18.62,-12.89 -32.22,-12.89 -13.85,0 -24.83,4.29 -32.94,12.89 -7.88,8.35 -11.82,20.41 -11.82,36.17l0 109.56 -50.12 0 0 -264.96 50.12 0 0 91.3c6.45,-8.59 15.04,-15.27 25.78,-20.05 10.74,-5.02 22.68,-7.52 35.81,-7.52zm112.12 101.33c0,-20.05 3.94,-37.84 11.81,-53.35 8.12,-15.52 18.98,-27.46 32.59,-35.81 13.85,-8.35 29.24,-12.53 46.19,-12.53 14.8,0 27.69,2.99 38.67,8.96 11.22,5.97 20.17,13.48 26.86,22.56l0 -28.28 50.48 0 0 198.36 -50.48 0 0 -29c-6.45,9.31 -15.4,17.07 -26.86,23.27 -11.22,5.97 -24.23,8.95 -39.03,8.95 -16.71,0 -31.98,-4.29 -45.83,-12.89 -13.61,-8.59 -24.47,-20.65 -32.59,-36.16 -7.88,-15.76 -11.81,-33.78 -11.81,-54.07zm156.12 0.72c0,-12.18 -2.39,-22.56 -7.17,-31.16 -4.77,-8.83 -11.22,-15.51 -19.34,-20.05 -8.12,-4.77 -16.83,-7.16 -26.14,-7.16 -9.31,0 -17.9,2.27 -25.78,6.8 -7.88,4.53 -14.32,11.22 -19.34,20.05 -4.78,8.59 -7.17,18.86 -7.17,30.79 0,11.94 2.39,22.44 7.17,31.51 5.01,8.83 11.45,15.64 19.34,20.42 8.12,4.77 16.71,7.16 25.78,7.16 9.31,0 18.02,-2.27 26.14,-6.8 8.12,-4.77 14.56,-11.46 19.34,-20.05 4.78,-8.83 7.17,-19.34 7.17,-31.51zm175.35 102.4c-16.23,0 -30.79,-2.86 -43.68,-8.59 -12.89,-5.97 -23.15,-13.97 -30.79,-23.99 -7.4,-10.03 -11.46,-21.13 -12.17,-33.3l50.48 0c0.96,7.64 4.66,13.97 11.1,18.98 6.68,5.01 14.92,7.52 24.7,7.52 9.55,0 16.95,-1.91 22.2,-5.73 5.49,-3.82 8.24,-8.72 8.24,-14.68 0,-6.45 -3.34,-11.22 -10.03,-14.32 -6.44,-3.34 -16.83,-6.93 -31.15,-10.74 -14.8,-3.58 -26.97,-7.28 -36.52,-11.1 -9.31,-3.82 -17.42,-9.67 -24.35,-17.54 -6.69,-7.88 -10.02,-18.5 -10.02,-31.87 0,-10.98 3.1,-21 9.31,-30.08 6.45,-9.07 15.52,-16.23 27.21,-21.48 11.94,-5.25 25.91,-7.88 41.9,-7.88 23.63,0 42.49,5.97 56.57,17.91 14.08,11.7 21.84,27.57 23.28,47.62l-47.98 0c-0.72,-7.88 -4.06,-14.08 -10.03,-18.62 -5.73,-4.77 -13.48,-7.16 -23.27,-7.16 -9.07,0 -16.11,1.67 -21.13,5.01 -4.77,3.34 -7.16,7.99 -7.16,13.96 0,6.69 3.34,11.81 10.02,15.4 6.69,3.34 17.07,6.8 31.16,10.39 14.32,3.58 26.14,7.28 35.44,11.1 9.31,3.82 17.3,9.79 23.99,17.91 6.93,7.88 10.5,18.38 10.74,31.51 0,11.45 -3.22,21.72 -9.67,30.79 -6.2,9.07 -15.27,16.23 -27.21,21.48 -11.7,5.01 -25.42,7.51 -41.18,7.51z"/>
  <path class="fil1" d="M1408.29 284.66c-9.07,0 -16.59,-2.75 -22.56,-8.24 -5.73,-5.73 -8.59,-12.77 -8.59,-21.13 0,-8.35 2.86,-15.27 8.59,-20.76 5.97,-5.73 13.49,-8.59 22.56,-8.59 8.83,0 16.11,2.86 21.84,8.59 5.72,5.49 8.59,12.41 8.59,20.76 0,8.35 -2.86,15.4 -8.59,21.13 -5.73,5.49 -13.01,8.24 -21.84,8.24zm1704.29 -74.48c0,12.41 -3.22,24.11 -9.66,35.09 -6.2,10.74 -15.52,19.69 -27.93,26.86 -12.18,6.92 -26.61,10.98 -43.33,12.17l0 29 -22.92 0 0 -29.36c-23.86,-2.15 -43.09,-9.31 -57.65,-21.48 -14.55,-12.42 -22.07,-29.13 -22.56,-50.13l53.73 0c1.43,17.19 10.26,27.57 26.49,31.15l0 -68.39c-17.19,-4.29 -31.03,-8.59 -41.54,-12.89 -10.49,-4.29 -19.57,-11.22 -27.2,-20.77 -7.64,-9.54 -11.47,-22.56 -11.47,-39.03 0,-20.76 7.42,-37.71 22.21,-50.85 15.03,-13.13 34.37,-20.65 58,-22.56l0 -29 22.92 0 0 29c22.92,1.91 41.17,8.83 54.78,20.77 13.85,11.93 21.61,28.4 23.28,49.41l-54.07 0c-0.7,-6.93 -3.21,-12.89 -7.51,-17.91 -4.07,-5.25 -9.55,-8.95 -16.48,-11.1l0 67.67c17.91,4.53 31.98,8.95 42.26,13.24 10.49,4.06 19.57,10.86 27.2,20.42 7.64,9.31 11.45,22.2 11.45,38.67zm-131.76 -110.29c0,7.88 2.39,14.32 7.16,19.34 4.78,4.77 11.71,8.71 20.77,11.81l0 -61.94c-8.59,1.19 -15.4,4.42 -20.41,9.67 -5.01,5.25 -7.52,12.29 -7.52,21.12zm50.85 144.3c9.07,-1.68 16.12,-5.37 21.13,-11.1 5.25,-5.72 7.87,-12.65 7.87,-20.76 0,-7.88 -2.5,-14.2 -7.51,-18.98 -5.01,-4.77 -12.17,-8.71 -21.49,-11.81l0 62.66z"/>
  <path class="fil2" d="M1477.67 180.87c0,-20.56 4.18,-38.55 12.55,-53.97 8.37,-15.42 19.96,-27.38 34.78,-35.86 14.82,-8.48 31.8,-12.73 50.92,-12.73 24.62,0 44.99,6.16 61.13,18.47 16.14,12.31 26.96,29.58 32.46,51.82l-54.14 0c-2.87,-8.61 -7.71,-15.36 -14.52,-20.26 -6.82,-4.9 -15.24,-7.36 -25.28,-7.36 -14.34,0 -25.69,5.2 -34.06,15.6 -8.37,10.4 -12.55,25.16 -12.55,44.28 0,18.88 4.18,33.52 12.55,43.92 8.37,10.4 19.72,15.6 34.06,15.6 20.32,0 33.59,-9.09 39.81,-27.25l54.14 0c-5.5,21.51 -16.37,38.6 -32.63,51.27 -16.25,12.67 -36.57,19.01 -60.95,19.01 -19.12,0 -36.1,-4.25 -50.92,-12.73 -14.82,-8.48 -26.41,-20.44 -34.78,-35.85 -8.36,-15.42 -12.55,-33.41 -12.55,-53.97zm316.97 102.55c-19.12,0 -36.33,-4.25 -51.63,-12.73 -15.3,-8.48 -27.31,-20.5 -36.04,-36.04 -8.72,-15.53 -13.09,-33.46 -13.09,-53.78 0,-20.32 4.49,-38.25 13.45,-53.79 8.96,-15.54 21.22,-27.55 36.75,-36.04 15.54,-8.48 32.87,-12.73 52,-12.73 19.12,0 36.46,4.25 51.99,12.73 15.54,8.48 27.79,20.5 36.76,36.04 8.96,15.54 13.45,33.47 13.45,53.79 0,20.32 -4.6,38.25 -13.8,53.78 -9.2,15.54 -21.64,27.55 -37.3,36.04 -15.66,8.48 -33.17,12.73 -52.53,12.73zm0 -43.74c9.09,0 17.63,-2.22 25.64,-6.64 8.01,-4.42 14.41,-11.06 19.18,-19.9 4.78,-8.85 7.17,-19.6 7.17,-32.27 0,-18.88 -4.96,-33.41 -14.88,-43.57 -9.92,-10.16 -22.05,-15.24 -36.39,-15.24 -14.34,0 -26.36,5.08 -36.04,15.24 -9.68,10.16 -14.52,24.68 -14.52,43.57 0,18.88 4.72,33.41 14.17,43.57 9.44,10.16 21.33,15.24 35.68,15.24zm387.26 -161c24.38,0 44.04,7.47 58.98,22.41 14.94,14.94 22.41,35.79 22.41,62.57l0 116.54 -50.2 0 0 -109.72c0,-15.54 -3.94,-27.43 -11.83,-35.68 -7.89,-8.25 -18.64,-12.38 -32.27,-12.38 -13.63,0 -24.44,4.12 -32.45,12.38 -8.01,8.25 -12.01,20.14 -12.01,35.68l0 109.72 -50.2 0 0 -109.72c0,-15.54 -3.94,-27.43 -11.83,-35.68 -7.89,-8.25 -18.64,-12.38 -32.27,-12.38 -13.87,0 -24.8,4.12 -32.81,12.38 -8.01,8.25 -12.01,20.14 -12.01,35.68l0 109.72 -50.2 0 0 -198.65 50.2 0 0 24.03c6.45,-8.36 14.76,-14.94 24.92,-19.72 10.16,-4.78 21.33,-7.17 33.53,-7.17 15.53,0 29.4,3.29 41.59,9.86 12.19,6.58 21.63,15.96 28.33,28.15 6.45,-11.47 15.84,-20.68 28.15,-27.61 12.31,-6.93 25.64,-10.4 39.98,-10.4zm179.28 31.55c6.45,-9.09 15.36,-16.68 26.71,-22.77 11.36,-6.1 24.33,-9.15 38.9,-9.15 16.98,0 32.33,4.18 46.08,12.55 13.74,8.37 24.62,20.26 32.63,35.68 8.01,15.42 12.01,33.29 12.01,53.61 0,20.32 -4.01,38.31 -12.01,53.97 -8.01,15.66 -18.88,27.79 -32.63,36.39 -13.75,8.61 -29.11,12.91 -46.08,12.91 -14.58,0 -27.43,-2.99 -38.54,-8.96 -11.12,-5.98 -20.14,-13.51 -27.07,-22.59l0 122.99 -50.2 0 0 -293.31 50.2 0 0 28.69zm105.06 69.92c0,-11.95 -2.45,-22.29 -7.35,-31.02 -4.9,-8.72 -11.35,-15.36 -19.36,-19.9 -8.01,-4.55 -16.67,-6.82 -25.99,-6.82 -9.09,0 -17.63,2.33 -25.64,6.99 -8.01,4.66 -14.46,11.41 -19.36,20.26 -4.9,8.85 -7.35,19.25 -7.35,31.2 0,11.95 2.45,22.35 7.35,31.19 4.9,8.85 11.36,15.6 19.36,20.27 8.01,4.66 16.55,6.99 25.64,6.99 9.33,0 17.99,-2.39 25.99,-7.17 8.01,-4.78 14.47,-11.59 19.36,-20.44 4.9,-8.85 7.35,-19.36 7.35,-31.55zm138.05 -67.77c6.45,-10.52 14.88,-18.77 25.28,-24.74 10.4,-5.98 22.3,-8.96 35.68,-8.96l0 52.71 -13.27 0c-15.77,0 -27.67,3.71 -35.68,11.12 -8.01,7.41 -12.01,20.32 -12.01,38.73l0 98.97 -50.2 0 0 -198.65 50.2 0 0 30.84zm81.76 67.77c0,-20.08 4,-37.89 12.01,-53.42 8.01,-15.54 18.88,-27.49 32.63,-35.86 13.74,-8.37 29.11,-12.55 46.08,-12.55 14.82,0 27.79,2.99 38.91,8.97 11.11,5.98 20.02,13.5 26.71,22.59l0 -28.33 50.55 0 0 198.65 -50.55 0 0 -29.04c-6.45,9.33 -15.36,17.03 -26.71,23.13 -11.36,6.09 -24.44,9.14 -39.27,9.14 -16.74,0 -31.98,-4.3 -45.72,-12.91 -13.74,-8.61 -24.62,-20.74 -32.63,-36.39 -8.01,-15.66 -12.01,-33.65 -12.01,-53.97zm156.34 0.72c0,-12.19 -2.39,-22.65 -7.17,-31.38 -4.78,-8.72 -11.23,-15.42 -19.36,-20.08 -8.13,-4.66 -16.85,-6.99 -26.18,-6.99 -9.32,0 -17.93,2.27 -25.82,6.82 -7.89,4.54 -14.28,11.17 -19.18,19.9 -4.9,8.73 -7.35,19.07 -7.35,31.02 0,11.95 2.45,22.41 7.35,31.38 4.9,8.96 11.36,15.83 19.36,20.61 8.01,4.79 16.56,7.17 25.64,7.17 9.33,0 18.05,-2.33 26.18,-6.99 8.13,-4.66 14.58,-11.36 19.36,-20.08 4.78,-8.72 7.17,-19.18 7.17,-31.38z"/>
 </g>
</svg>
