<?xml version="1.0" encoding="UTF-8"?>
<!DOCTYPE svg PUBLIC "-//W3C//DTD SVG 1.1//EN" "http://www.w3.org/Graphics/SVG/1.1/DTD/svg11.dtd">
<!-- Creator: CorelDRAW 2020 (64 Bit) -->
<svg xmlns="http://www.w3.org/2000/svg" xml:space="preserve" width="7.1438mm" height="7.1438mm" version="1.1" style="shape-rendering:geometricPrecision; text-rendering:geometricPrecision; image-rendering:optimizeQuality; fill-rule:evenodd; clip-rule:evenodd"
viewBox="0 0 125.37 125.37"
 xmlns:xlink="http://www.w3.org/1999/xlink"
 xmlns:xodm="http://www.corel.com/coreldraw/odm/2003">
 <defs>
  <style type="text/css">
   <![CDATA[
    .str0 {stroke:#E83F5B;stroke-width:13.93;stroke-linecap:round;stroke-linejoin:round;stroke-miterlimit:22.9256}
    .fil0 {fill:none}
    .fil1 {fill:#E83F5B;fill-rule:nonzero}
   ]]>
  </style>
 </defs>
 <g id="Camada_x0020_1">
  <metadata id="CorelCorpID_0Corel-Layer"/>
  <path class="fil0 str0" d="M62.69 6.97c-30.77,0 -55.72,24.95 -55.72,55.72 0,30.77 24.95,55.72 55.72,55.72 30.77,0 55.72,-24.95 55.72,-55.72 0,-30.77 -24.95,-55.72 -55.72,-55.72z"/>
  <path id="icons8-lixo.svg" class="fil1" d="M57.15 35.01l-2.77 2.77 -13.84 0 0 5.53 2.77 0 0 41.51c0,1.44 0.53,2.92 1.57,3.96 1.04,1.04 2.52,1.57 3.96,1.57l27.67 0c1.44,0 2.92,-0.53 3.96,-1.57 1.04,-1.04 1.57,-2.52 1.57,-3.96l0 -41.51 2.77 0 0 -5.53 -13.84 0 -2.77 -2.77 -11.07 0zm-8.3 8.3l27.67 0 0 41.51 -27.67 0 0 -41.51zm5.53 5.54l0 30.44 5.54 0 0 -30.44 -5.54 0zm11.07 0l0 30.44 5.54 0 0 -30.44 -5.54 0z"/>
 </g>
</svg>
