<?xml version="1.0" encoding="UTF-8"?>
<!DOCTYPE svg PUBLIC "-//W3C//DTD SVG 1.1//EN" "http://www.w3.org/Graphics/SVG/1.1/DTD/svg11.dtd">
<!-- Creator: CorelDRAW 2020 (64 Bit) -->
<svg xmlns="http://www.w3.org/2000/svg" xml:space="preserve" width="7.1438mm" height="7.1438mm" version="1.1" style="shape-rendering:geometricPrecision; text-rendering:geometricPrecision; image-rendering:optimizeQuality; fill-rule:evenodd; clip-rule:evenodd"
viewBox="0 0 58.87 58.87"
 xmlns:xlink="http://www.w3.org/1999/xlink"
 xmlns:xodm="http://www.corel.com/coreldraw/odm/2003">
 <defs>
  <style type="text/css">
   <![CDATA[
    .str0 {stroke:#E83F5B;stroke-width:6.54;stroke-linecap:round;stroke-linejoin:round;stroke-miterlimit:22.9256}
    .fil0 {fill:none}
    .fil1 {fill:#E83F5B;fill-rule:nonzero}
   ]]>
  </style>
 </defs>
 <g id="Camada_x0020_1">
  <metadata id="CorelCorpID_0Corel-Layer"/>
  <path class="fil0 str0" d="M29.44 3.27c-14.45,0 -26.17,11.71 -26.17,26.17 0,14.45 11.71,26.17 26.17,26.17 14.45,0 26.17,-11.71 26.17,-26.17 0,-14.45 -11.71,-26.17 -26.17,-26.17z"/>
  <path class="fil1" d="M21.18 41c-0.91,0.91 -2.39,0.91 -3.3,0l0 0c-0.91,-0.91 -0.91,-2.39 0,-3.3l19.82 -19.82c0.91,-0.91 2.39,-0.91 3.3,0l0 0c0.91,0.91 0.91,2.39 -0,3.3l-19.82 19.82z"/>
  <path class="fil1" d="M37.7 41c0.91,0.91 2.39,0.91 3.3,0l0 0c0.91,-0.91 0.91,-2.39 0,-3.3l-19.82 -19.82c-0.91,-0.91 -2.39,-0.91 -3.3,0l0 0c-0.91,0.91 -0.91,2.39 0,3.3l19.82 19.82z"/>
 </g>
</svg>
